Coordinates
version=1
nRows=22
nColumns=18
inDegrees=yes

Units are S.I. units (second, meters, Newtons, ...)
Angles are in degrees.

endheader
time	ground_thorax_rot_x	ground_thorax_rot_y	ground_thorax_rot_z	ground_thorax_tx	ground_thorax_ty	ground_thorax_tz	clav_prot	clav_elev	scapula_abduction	scapula_elevation	scapula_upward_rot	scapula_winging	plane_elv	shoulder_elv	axial_rot	elbow_flexion	pro_sup
      0.00000000	      1.30146706	     -2.30816670	     -8.52518590	     -0.00423131	      0.00403036	     -0.00078352	    -28.64581176	     -6.00945438	    -23.74306121	     -5.11168702	     10.63169216	      6.27734443	    -34.49984132	     20.32551388	     25.67283852	      0.00000000	     34.32000000
      0.01000000	      1.35254950	     -2.38207408	     -8.60845748	     -0.00423131	      0.00403036	     -0.00078352	    -28.63598091	     -6.01413133	    -23.71152385	     -5.12152320	     10.65732507	      6.27473796	    -34.16693494	     20.29915060	     25.56346998	      0.00000000	     34.32000000
      0.02000000	      1.72300934	     -2.55896259	     -8.51427815	     -0.00423131	      0.00403036	     -0.00078352	    -28.45553775	     -5.58056578	    -23.35121596	     -4.85405110	     10.95438261	      6.06240280	    -33.72939144	     20.34156970	     24.40547466	      0.00000000	     34.32000000
      0.03000000	      1.37624070	     -2.44938062	     -8.57499228	     -0.00423131	      0.00403036	     -0.00078352	    -28.55441896	     -5.92172058	    -23.48980481	     -5.09693731	     10.85257987	      6.20358738	    -34.94268491	     20.04291877	     28.19057977	      0.00000000	     34.32000000
      0.04000000	      1.39968426	     -2.40557669	     -8.56668979	     -0.00423131	      0.00403036	     -0.00078352	    -28.57935939	     -5.93776036	    -23.50984978	     -5.11959611	     10.88430255	      6.19888768	    -35.08880597	     20.09234056	     28.22079775	      0.00000000	     34.32000000
      0.05000000	      1.42742599	     -2.36295711	     -8.53723467	     -0.00423131	      0.00403036	     -0.00078352	    -28.61661561	     -5.92598325	    -23.55835136	     -5.12107335	     10.91409651	      6.18208243	    -35.07884316	     20.23241913	     26.79027849	      0.00000000	     34.32000000
      0.06000000	      1.63221774	     -2.50873750	     -8.29573035	     -0.00423131	      0.00403036	     -0.00078352	    -28.44361211	     -5.65633577	    -23.37403190	     -4.88195560	     10.84369245	      6.11921680	    -34.40908753	     20.59535025	     25.43224001	      0.00000000	     34.32000000
      0.07000000	      1.44250523	     -2.37764295	     -8.51965321	     -0.00423131	      0.00403036	     -0.00078352	    -28.62113866	     -5.97516880	    -23.58227851	     -5.14575899	     10.86329006	      6.21270416	    -34.97579860	     20.53879601	     24.85540944	      0.00000000	     34.32000000
      0.08000000	      1.63486850	     -2.36446689	     -8.64985379	     -0.00423131	      0.00403036	     -0.00078352	    -28.69789973	     -5.88997067	    -23.68815839	     -5.10584597	     10.94005320	      6.15038615	    -34.15457416	     20.59143838	     22.88447567	      0.00000000	     34.32000000
      0.09000000	      1.78267644	     -2.72747438	     -8.48471435	     -0.00423131	      0.00403036	     -0.00078352	    -28.29825999	     -5.59201046	    -22.96516635	     -4.91000804	     11.17052335	      6.03565952	    -34.42077156	     20.66120019	     22.19857916	      0.00000000	     34.32000000
      0.10000000	      1.25113471	     -2.33559174	     -8.69564096	     -0.00423131	      0.00403036	     -0.00078352	    -28.62570535	     -6.25319131	    -23.73872015	     -5.25629780	     10.47378202	      6.41346782	    -34.40038105	     20.80727850	     21.79609548	      0.00000000	     34.32000000
      0.11000000	      1.52618129	     -2.27087682	     -8.81618086	     -0.00423131	      0.00403036	     -0.00078352	    -28.78257687	     -6.03637711	    -23.81979516	     -5.21249941	     10.89411435	      6.20669399	    -34.21718793	     20.64212087	     21.12674138	      0.00000000	     34.32000000
      0.12000000	      1.34941565	     -2.51058503	     -8.58521053	     -0.00423131	      0.00403036	     -0.00078352	    -28.48172534	     -6.05996283	    -23.42700319	     -5.15411510	     10.68641725	      6.30675601	    -34.65630492	     20.74277289	     22.01425400	      0.00000000	     34.32000000
      0.13000000	      1.36660576	     -2.61782030	     -8.53335609	     -0.00423131	      0.00403036	     -0.00078352	    -28.40311944	     -6.01650577	    -23.32853347	     -5.10432778	     10.64628623	      6.31024207	    -34.63594306	     20.79533629	     22.26858755	      0.00000000	     34.32000000
      0.14000000	      1.37576078	     -2.62453353	     -8.51580202	     -0.00423131	      0.00403036	     -0.00078352	    -28.42921078	     -6.04732738	    -23.34105637	     -5.14132297	     10.68864038	      6.30826199	    -34.62420656	     20.81959268	     22.29975569	      0.00000000	     34.32000000
      0.15000000	      1.32557078	     -2.75677081	     -8.52557652	     -0.00423131	      0.00403036	     -0.00078352	    -28.32338078	     -6.13256586	    -23.21713351	     -5.16422143	     10.55596400	      6.38709737	    -34.36363988	     20.87789837	     22.17888925	      0.00000000	     34.32000000
      0.16000000	      1.33350711	     -2.76835041	     -8.54868001	     -0.00423131	      0.00403036	     -0.00078352	    -28.35119922	     -6.11817227	    -23.26255801	     -5.15716772	     10.56395827	      6.37571709	    -34.35685552	     20.85131218	     22.19976832	      0.00000000	     34.32000000
      0.17000000	      1.34623739	     -2.44252353	     -8.60160735	     -0.00423131	      0.00403036	     -0.00078352	    -28.66586701	     -6.11427674	    -23.77399688	     -5.18320000	     10.59110301	      6.32543298	    -34.35891196	     20.68460341	     22.45696783	      0.00000000	     34.32000000
      0.18000000	      1.45030071	     -2.44222445	     -8.58615106	     -0.00423131	      0.00403036	     -0.00078352	    -28.70104583	     -5.97377695	    -23.71747881	     -5.14945825	     10.86051086	      6.20176163	    -34.71466342	     20.11254233	     27.71877005	      0.00000000	     34.32000000
      0.19000000	      1.28079832	     -2.35556361	     -8.58361237	     -0.00423131	      0.00403036	     -0.00078352	    -28.71806891	     -6.17399909	    -23.86148393	     -5.22585162	     10.56455714	      6.34788949	    -34.47503809	     20.41828392	     26.04852178	      0.00000000	     34.32000000
      0.20000000	      1.28743326	     -2.32536103	     -8.59918043	     -0.00423131	      0.00403036	     -0.00078352	    -28.71231877	     -6.21879673	    -23.84678465	     -5.25755049	     10.55489542	      6.36876054	    -34.45931934	     20.55465674	     24.73096057	      0.00000000	     34.32000000
      0.21000000	      1.38465598	     -2.33617465	     -8.64594705	     -0.00423131	      0.00403036	     -0.00078352	    -28.69696767	     -6.21822884	    -23.78890982	     -5.27175786	     10.61344638	      6.35682486	    -34.25586390	     20.65745923	     24.74379459	      0.00000000	     34.32000000
